# xmcd
# 
# Track frame offsets:
#     150
#     14228
#     28618
#     42853
#     57450
#     74173
#     86938
#     98838
#     111790
#     127993
#     142635
# 
# Disc length: 2035
# 
# Revision: 1
# Processed by: cddbd v1.5.2PL0 Copyright (c) Steve Scherf et al.
# Submitted via: BonkEnc v1.0
# 
DISCID=9c07f10b
DTITLE=Charlie Rich - Boss Man
DYEAR=1970
DGENRE=Country
TTITLE0=Nice 'n' Easy
TTITLE1=Have a Heart
TTITLE2=Down On The River
TTITLE3=I Can't Even Drink It Away
TTITLE4=Memphis and Arkansas Bridge
TTITLE5=Big Boss Man
TTITLE6=Hello Darlin'
TTITLE7=Golden Slipper Rose
TTITLE8=I'll Be More Than Happy (To Set You Free)
TTITLE9=My Joy
TTITLE10=I Do My Swingin' At Home
EXTD=YEAR: 1970 ID3G: 2
EXTT0=
EXTT1=
EXTT2=
EXTT3=
EXTT4=
EXTT5=
EXTT6=
EXTT7=
EXTT8=
EXTT9=
EXTT10=
PLAYORDER=
